<?xml version="1.0" encoding="UTF-8"?>
<svg id="Calque_1" xmlns="http://www.w3.org/2000/svg" width="359.09" height="760.9" viewBox="0 0 359.09 760.9">
  <defs>
    <style>
      .cls-1 {
        fill: #1d1d1b;
      }
    </style>
  </defs>
  <path class="cls-1" d="M46.2,515.2c17.5,11.2,58.1,28.7,100.8,28.7,79.1,0,103.6-50.4,102.9-88.2-.7-63.7-58.1-91-117.6-91h-34.3v-46.2h34.3c44.8,0,101.5-23.1,101.5-77,0-36.4-23.1-68.6-79.8-68.6-36.4,0-71.4,16.1-91,30.1l-16.1-44.8c23.8-17.5,70-35,119-35,89.6,0,130.2,53.2,130.2,108.5,0,46.9-28,86.8-84,107.1v1.4c56,11.2,101.5,53.2,101.5,116.9,0,72.8-56.7,136.5-165.9,136.5-51.1,0-95.9-16.1-118.3-30.8l16.8-47.6Z"/>
</svg>