<?xml version="1.0" encoding="UTF-8"?>
<svg id="Calque_1" xmlns="http://www.w3.org/2000/svg" width="359.09" height="760.9" viewBox="0 0 359.09 760.9">
  <defs>
    <style>
      .cls-1 {
        fill: #1d1d1b;
      }
    </style>
  </defs>
  <path class="cls-1" d="M303.1,182.71h-173.6l-17.5,116.9c10.5-1.4,20.3-2.8,37.1-2.8,35,0,70,7.7,98,24.5,35.7,20.3,65.1,59.5,65.1,116.9,0,88.9-70.7,155.4-169.4,155.4-49.7,0-91.7-14-113.4-28l15.4-46.9c18.9,11.2,56,25.2,97.3,25.2,58.1,0,107.8-37.8,107.8-98.7-.7-58.8-39.9-100.8-130.9-100.8-25.9,0-46.2,2.8-63,4.9l29.4-218.4h217.7v51.8Z"/>
</svg>