<?xml version="1.0" encoding="UTF-8"?>
<svg id="Calque_1" xmlns="http://www.w3.org/2000/svg" width="359.09" height="760.9" viewBox="0 0 359.09 760.9">
  <defs>
    <style>
      .cls-1 {
        fill: #1d1d1b;
      }
    </style>
  </defs>
  <path class="cls-1" d="M25.9,470.4c0-57.4,34.3-98,90.3-121.8l-.7-2.1c-50.4-23.8-72.1-63-72.1-102.2,0-72.1,60.9-121.1,140.7-121.1,88.2,0,132.3,55.3,132.3,112,0,38.5-18.9,79.8-74.9,106.4v2.1c56.7,22.4,91.7,62.3,91.7,117.6,0,79.1-67.9,132.3-154.7,132.3-95.2,0-152.6-56.7-152.6-123.2ZM270.9,467.6c0-55.3-38.5-81.9-100.1-99.4-53.2,15.4-81.9,50.4-81.9,93.8-2.1,46.2,32.9,86.8,91,86.8s91-34.3,91-81.2ZM101.5,240.11c0,45.5,34.3,70,86.8,84,39.2-13.3,69.3-41.3,69.3-82.6,0-36.4-21.7-74.2-77-74.2-51.1,0-79.1,33.6-79.1,72.8Z"/>
</svg>