<?xml version="1.0" encoding="UTF-8"?>
<svg id="Calque_1" xmlns="http://www.w3.org/2000/svg" width="359.09" height="760.9" viewBox="0 0 359.09 760.9">
  <defs>
    <style>
      .cls-1 {
        fill: #1d1d1b;
      }
    </style>
  </defs>
  <path class="cls-1" d="M67.2,542.5c13.3,1.4,28.7,0,49.7-2.1,35.7-4.9,69.3-19.6,95.2-44.1,30.1-27.3,51.8-67.2,60.2-121.1h-2.1c-25.2,30.8-61.6,49-107.1,49-81.9,0-134.4-61.6-134.4-139.3,0-86.1,62.3-161.7,155.4-161.7s150.5,75.6,150.5,191.8c0,100.1-33.6,170.1-78.4,213.5-35,34.3-83.3,55.3-132.3,60.9-22.4,3.5-42,4.2-56.7,3.5v-50.4ZM89.6,280.71c0,56.7,34.3,96.6,87.5,96.6,41.3,0,73.5-20.3,89.6-47.6,3.5-5.6,5.6-12.6,5.6-22.4,0-77.7-28.7-137.2-93.1-137.2-52.5,0-89.6,46.2-89.6,110.6Z"/>
</svg>