<?xml version="1.0" encoding="UTF-8"?>
<svg id="Calque_1" xmlns="http://www.w3.org/2000/svg" width="500" height="500" viewBox="0 0 500 500">
  <defs>
    <style>
      .cls-1 {
        fill: #1d1d1b;
      }
    </style>
  </defs>
  <path class="cls-1" d="M399.13,49.33v85.68c14.64,8.72,24.46,24.71,24.46,42.99,0,27.61-22.39,50-50,50s-50-22.39-50-50,22.38-50,50-50c6.65,0,13,1.3,18.8,3.66V44.48C351.99,16.44,302.92,0,250,0c-58.45,0-112.2,20.05-154.77,53.65v89.49c9.08-9.34,21.78-15.14,35.83-15.14,27.62,0,50,22.39,50,50s-22.38,50-50,50-50-22.39-50-50c0-10.45,3.21-20.15,8.69-28.17V58.1C34.9,103.97,0,172.91,0,250c0,134.34,105.97,243.94,238.88,249.75v-58.55c-41.18-.89-83.8-6.87-115.05-19.87-34.07-14.16,0-100,0-100,0,0,68.17,25.84,126.17,28.34s138.05-28.34,138.05-28.34c0,0,24.93,80,0,100s-93.55,20-138.05,20v58.67c138.07,0,250-111.93,250-250,0-82.18-39.65-155.1-100.87-200.67Z"/>
</svg>